<svg version="1.1" viewBox="0.0 0.0 810.0 721.9343832020998" fill="none" stroke="none" stroke-linecap="square" stroke-miterlimit="10" xmlns:xlink="http://www.w3.org/1999/xlink" xmlns="http://www.w3.org/2000/svg"><clipPath id="p.0"><path d="m0 0l810.0 0l0 721.9344l-810.0 0l0 -721.9344z" clip-rule="nonzero"/></clipPath><g clip-path="url(#p.0)"><path fill="#000000" fill-opacity="0.0" d="m0 0l810.0 0l0 721.9344l-810.0 0z" fill-rule="evenodd"/><path fill="#f1c232" d="m121.661415 360.9672l0 0c0 -155.68343 126.855 -281.88977 283.3386 -281.88977l0 0c75.14606 0 147.21436 29.699013 200.35065 82.56359c53.13629 52.864594 82.987915 124.56436 82.987915 199.32617l0 0c0 155.68344 -126.85498 281.88974 -283.33856 281.88974l0 0c-156.48358 0 -283.3386 -126.2063 -283.3386 -281.88974z" fill-rule="evenodd"/><path stroke="#bf9000" stroke-width="12.0" stroke-linejoin="round" stroke-linecap="butt" d="m121.661415 360.9672l0 0c0 -155.68343 126.855 -281.88977 283.3386 -281.88977l0 0c75.14606 0 147.21436 29.699013 200.35065 82.56359c53.13629 52.864594 82.987915 124.56436 82.987915 199.32617l0 0c0 155.68344 -126.85498 281.88974 -283.33856 281.88974l0 0c-156.48358 0 -283.3386 -126.2063 -283.3386 -281.88974z" fill-rule="evenodd"/><path fill="#ffffff" d="m217.72441 240.32283l0 0c0 -29.832077 24.18367 -54.015747 54.01573 -54.015747l8.409454 0l0 0l93.63782 0l164.47241 0c14.325867 0 28.065002 5.690933 38.194946 15.820847c10.129883 10.129929 15.820801 23.869034 15.820801 38.1949l0 135.03938l0 0l0 81.02362l0 0c0 29.832062 -24.183655 54.015747 -54.015747 54.015747l-164.47241 0l-46.817657 40.51181l-46.82016 -40.51181l-8.409454 0l0 0c-29.832062 0 -54.01573 -24.183685 -54.01573 -54.015747l0 0l0 -81.02362l0 0z" fill-rule="evenodd"/><path fill="#000000" d="m277.4357 340.9449l0 0c0 -20.630219 16.72409 -37.35434 37.35434 -37.35434l0 0c9.906982 0 19.408203 3.9355469 26.413483 10.940826c7.00531 7.00531 10.940826 16.50653 10.940826 26.413513l0 0c0 20.630219 -16.72409 37.35434 -37.35431 37.35434l0 0c-20.630249 0 -37.35434 -16.724121 -37.35434 -37.35434z" fill-rule="evenodd"/><path stroke="#000000" stroke-width="1.0" stroke-linejoin="round" stroke-linecap="butt" d="m277.4357 340.9449l0 0c0 -20.630219 16.72409 -37.35434 37.35434 -37.35434l0 0c9.906982 0 19.408203 3.9355469 26.413483 10.940826c7.00531 7.00531 10.940826 16.50653 10.940826 26.413513l0 0c0 20.630219 -16.72409 37.35434 -37.35431 37.35434l0 0c-20.630249 0 -37.35434 -16.724121 -37.35434 -37.35434z" fill-rule="evenodd"/><path fill="#000000" d="m365.4357 340.9449l0 0c0 -20.630219 16.72409 -37.35434 37.35434 -37.35434l0 0c9.906982 0 19.408203 3.9355469 26.413483 10.940826c7.00531 7.00531 10.940826 16.50653 10.940826 26.413513l0 0c0 20.630219 -16.72409 37.35434 -37.35431 37.35434l0 0c-20.630249 0 -37.35434 -16.724121 -37.35434 -37.35434z" fill-rule="evenodd"/><path stroke="#000000" stroke-width="1.0" stroke-linejoin="round" stroke-linecap="butt" d="m365.4357 340.9449l0 0c0 -20.630219 16.72409 -37.35434 37.35434 -37.35434l0 0c9.906982 0 19.408203 3.9355469 26.413483 10.940826c7.00531 7.00531 10.940826 16.50653 10.940826 26.413513l0 0c0 20.630219 -16.72409 37.35434 -37.35431 37.35434l0 0c-20.630249 0 -37.35434 -16.724121 -37.35434 -37.35434z" fill-rule="evenodd"/><path fill="#000000" d="m453.4357 340.9449l0 0c0 -20.630219 16.72409 -37.35434 37.35434 -37.35434l0 0c9.906982 0 19.408203 3.9355469 26.413513 10.940826c7.005249 7.00531 10.940796 16.50653 10.940796 26.413513l0 0c0 20.630219 -16.72409 37.35434 -37.35431 37.35434l0 0c-20.630249 0 -37.35434 -16.724121 -37.35434 -37.35434z" fill-rule="evenodd"/><path stroke="#000000" stroke-width="1.0" stroke-linejoin="round" stroke-linecap="butt" d="m453.4357 340.9449l0 0c0 -20.630219 16.72409 -37.35434 37.35434 -37.35434l0 0c9.906982 0 19.408203 3.9355469 26.413513 10.940826c7.005249 7.00531 10.940796 16.50653 10.940796 26.413513l0 0c0 20.630219 -16.72409 37.35434 -37.35431 37.35434l0 0c-20.630249 0 -37.35434 -16.724121 -37.35434 -37.35434z" fill-rule="evenodd"/></g></svg>